<svg width="479" height="205" viewBox="0 0 479 205" fill="none" xmlns="http://www.w3.org/2000/svg">
<path d="M179 153.5L159.5 164.5V61.5L179 51V153.5Z" fill="#203ED8"/>
<path d="M179 153.5L479 154V51H179V153.5Z" fill="#586EE2"/>
<path d="M234.194 126H203.756V119.625C207.381 116.312 210.413 113.438 212.85 111C215.288 108.562 217.225 106.417 218.663 104.562C220.1 102.688 221.121 100.99 221.725 99.469C222.35 97.948 222.663 96.469 222.663 95.031C222.663 93.552 222.392 92.271 221.85 91.188C221.308 90.083 220.558 89.229 219.6 88.625C218.642 88.021 217.517 87.719 216.225 87.719C214.725 87.719 213.267 88.146 211.85 89C210.454 89.833 209.256 91 208.256 92.5L202.756 85.438C204.652 83.146 206.986 81.365 209.756 80.094C212.548 78.823 215.413 78.188 218.35 78.188C221.183 78.188 223.777 78.781 226.131 79.969C228.486 81.156 230.371 82.854 231.788 85.062C233.204 87.271 233.913 89.906 233.913 92.969C233.913 95.01 233.569 97.042 232.881 99.062C232.215 101.083 231.236 103.083 229.944 105.062C228.673 107.021 227.131 108.958 225.319 110.875C223.506 112.771 221.444 114.615 219.131 116.406H234.194V126Z" fill="white"/>
<path d="M239.879 122.031L244.004 113.875C245.65 115.021 247.243 115.885 248.785 116.469C250.327 117.052 251.796 117.344 253.191 117.344C254.504 117.344 255.66 117.104 256.66 116.625C257.681 116.125 258.483 115.448 259.066 114.594C259.65 113.719 259.941 112.708 259.941 111.562C259.941 109.688 259.129 108.229 257.504 107.188C255.9 106.125 253.65 105.594 250.754 105.594H248.66V98.031H250.754C252.337 98.031 253.733 97.792 254.941 97.312C256.171 96.833 257.129 96.177 257.816 95.344C258.525 94.49 258.879 93.51 258.879 92.406C258.879 91.51 258.639 90.719 258.16 90.031C257.681 89.323 257.014 88.771 256.16 88.375C255.327 87.979 254.368 87.781 253.285 87.781C252.139 87.781 250.91 88.031 249.598 88.531C248.285 89.031 246.868 89.792 245.348 90.812L240.598 83.188C242.473 81.583 244.587 80.354 246.941 79.5C249.316 78.625 251.796 78.188 254.379 78.188C257.254 78.188 259.806 78.708 262.035 79.75C264.285 80.771 266.046 82.188 267.316 84C268.608 85.812 269.254 87.896 269.254 90.25C269.254 92.75 268.535 94.99 267.098 96.969C265.681 98.948 263.796 100.479 261.441 101.562C264.546 102.479 266.973 103.958 268.723 106C270.493 108.021 271.379 110.448 271.379 113.281C271.379 115.885 270.629 118.229 269.129 120.312C267.65 122.375 265.629 124 263.066 125.188C260.504 126.354 257.587 126.938 254.316 126.938C251.671 126.938 249.108 126.521 246.629 125.688C244.15 124.833 241.9 123.615 239.879 122.031Z" fill="white"/>
<path d="M313.626 91.781C312.397 90.51 310.897 89.531 309.126 88.844C307.356 88.135 305.46 87.781 303.439 87.781C301.439 87.781 299.626 88.125 298.001 88.812C296.376 89.5 294.97 90.49 293.783 91.781C292.616 93.052 291.71 94.573 291.064 96.344C290.439 98.115 290.126 100.104 290.126 102.312C290.126 104.542 290.46 106.583 291.126 108.438C291.793 110.271 292.731 111.854 293.939 113.188C295.168 114.5 296.626 115.521 298.314 116.25C300.001 116.979 301.876 117.344 303.939 117.344C305.564 117.344 307.043 117.115 308.376 116.656C309.731 116.177 310.918 115.5 311.939 114.625C312.981 113.729 313.845 112.646 314.533 111.375C315.241 110.104 315.751 108.667 316.064 107.062H303.626V98.688H325.72L326.033 102.875C326.033 106.438 325.491 109.698 324.408 112.656C323.324 115.594 321.783 118.135 319.783 120.281C317.803 122.406 315.439 124.052 312.689 125.219C309.939 126.365 306.887 126.938 303.533 126.938C300.053 126.938 296.814 126.323 293.814 125.094C290.835 123.844 288.22 122.115 285.97 119.906C283.741 117.698 282.001 115.115 280.751 112.156C279.501 109.177 278.876 105.948 278.876 102.469C278.876 99.052 279.491 95.875 280.72 92.938C281.949 89.979 283.658 87.396 285.845 85.188C288.053 82.979 290.626 81.26 293.564 80.031C296.522 78.802 299.72 78.188 303.158 78.188C306.387 78.188 309.522 78.75 312.564 79.875C315.606 81 318.335 82.604 320.751 84.688L313.626 91.781Z" fill="white"/>
<path d="M340.718 126H329.186L347.686 79.125H359.249L377.718 126H366.186L362.749 116.781H344.155L340.718 126ZM347.686 107.188H359.249L353.468 91.812L347.686 107.188Z" fill="white"/>
<path d="M398.59 126H387.59V88.719H374.184V79.125H411.996V88.719H398.59V126Z" fill="white"/>
<path d="M421.494 126V79.125H452.244V88.719H432.494V97.688H450.994V107.281H432.494V116.406H452.556V126H421.494Z" fill="white"/>
<path d="M179 72.5L89.5 124V102.5L179 51V72.5Z" fill="#203ED8"/>
<path d="M178.5 113.5L89.5 164.5V143L178.5 92V113.5Z" fill="#203ED8"/>
<path d="M178.5 153.5L89.5 204.5V183L178.5 132V153.5Z" fill="#203ED8"/>
<path d="M89 0L0 51.5L89.5 102.5L179 51L89 0Z" fill="#8296FF"/>
<path d="M69.5 152.5L89.5 164.5V102.5L69 91L69.5 152.5Z" fill="#586EE2"/>
<path d="M0 152.5L20 164.5L20.5 104L0 92V152.5Z" fill="#586EE2"/>
<path d="M0 72.5L89.5 124.5V102.5L0 51.5V72.5Z" fill="#586EE2"/>
<path d="M0 113L89.5 164.5V143L0 92V113Z" fill="#586EE2"/>
<path d="M0 153L89.5 204.5V183L0 132V153Z" fill="#586EE2"/>
</svg>
